<?xml version="1.0" encoding="UTF-8"?>
<svg xmlns="http://www.w3.org/2000/svg" id="Layer_2" width="18.22" height="13.51" viewBox="0 0 18.22 13.51">
  <defs>
    <style>.cls-1{fill:#231f20;}</style>
  </defs>
  <g id="Layer_1-2">
    <path class="cls-1" d="m7.5,2.11c-2.4,1.17-3.6,2.55-3.6,4.13,1.04.12,1.88.53,2.55,1.25.66.71,1,1.54,1,2.48,0,1-.33,1.84-.98,2.52-.65.68-1.47,1.03-2.45,1.03-1.09,0-2.04-.44-2.83-1.33-.79-.89-1.19-1.97-1.19-3.24C0,5.13,2.12,2.15,6.36,0l1.14,2.11Zm10.72,0c-2.38,1.17-3.57,2.55-3.57,4.13,1.02.12,1.86.53,2.52,1.25.66.71,1,1.54,1,2.48,0,1-.32,1.84-.97,2.52-.64.68-1.46,1.03-2.43,1.03-1.09,0-2.04-.44-2.84-1.33-.8-.89-1.2-1.97-1.2-3.24,0-3.81,2.13-6.79,6.39-8.94l1.11,2.11Z"></path>
  </g>
</svg>
